0
SECTION
2
HEADER
9
$INSUNITS
70
4
9
$ACADVER
1
AC1014
9
$HANDSEED
5
FFFF
0
ENDSEC
0
SECTION
2
TABLES
0
TABLE
2
VPORT
5
8
100
AcDbSymbolTable
0
ENDTAB
0
TABLE
2
LTYPE
5
5
100
AcDbSymbolTable
0
LTYPE
5
14
100
AcDbSymbolTableRecord
100
AcDbLinetypeTableRecord
2
BYBLOCK
70
0
0
LTYPE
5
15
100
AcDbSymbolTableRecord
100
AcDbLinetypeTableRecord
2
BYLAYER
70
0
0
LTYPE
5
16
100
AcDbSymbolTableRecord
100
AcDbLinetypeTableRecord
2
DASHED
70
0
3
Dashed __ __ __ __ __ __ __ __ __ __ __ __ __ _
72
65
73
2
40
0.75
49
0.5
74
0
49
-0.25
74
0
0
ENDTAB
0
TABLE
2
LAYER
5
2
100
AcDbSymbolTable
70
2
0
LAYER
5
50
100
AcDbSymbolTableRecord
100
AcDbLayerTableRecord
2
0
70
0
62
7
6
CONTINUOUS
0
ENDTAB
0
TABLE
2
STYLE
5
3
100
AcDbSymbolTable
70
1
0
STYLE
5
11
100
AcDbSymbolTableRecord
100
AcDbTextStyleTableRecord
2
STANDARD
70
0
0
ENDTAB
0
TABLE
2
VIEW
5
6
100
AcDbSymbolTable
70
0
0
ENDTAB
0
TABLE
2
UCS
5
7
100
AcDbSymbolTable
70
0
0
ENDTAB
0
TABLE
2
APPID
5
9
100
AcDbSymbolTable
70
2
0
APPID
5
12
100
AcDbSymbolTableRecord
100
AcDbRegAppTableRecord
2
ACAD
70
0
0
ENDTAB
0
TABLE
2
DIMSTYLE
5
A
100
AcDbSymbolTable
70
1
0
ENDTAB
0
TABLE
2
BLOCK_RECORD
5
1
100
AcDbSymbolTable
70
1
0
BLOCK_RECORD
5
1F
100
AcDbSymbolTableRecord
100
AcDbBlockTableRecord
2
*MODEL_SPACE
0
BLOCK_RECORD
5
1B
100
AcDbSymbolTableRecord
100
AcDbBlockTableRecord
2
*PAPER_SPACE
0
ENDTAB
0
ENDSEC
0
SECTION
2
BLOCKS
0
BLOCK
5
20
100
AcDbEntity
100
AcDbBlockBegin
2
*MODEL_SPACE
0
ENDBLK
5
21
100
AcDbEntity
100
AcDbBlockEnd
0
BLOCK
5
1C
100
AcDbEntity
100
AcDbBlockBegin
2
*PAPER_SPACE
0
ENDBLK
5
1D
100
AcDbEntity
100
AcDbBlockEnd
0
ENDSEC
0
SECTION
2
ENTITIES
0
LWPOLYLINE
5
100
100
AcDbEntity
8
0
100
AcDbPolyline
90
46
70
1
43
0.0
10
-15.050000000000004
20
-63.352676163769424
42
0.41421356237309637
10
-14.050000000000008
20
-64.352676163769416
10
-11.550000000000036
20
-64.352676163769416
42
-0.99999999999999989
10
-11.549999999999986
20
-65.352676163769402
10
-14.050000000000004
20
-65.352676163769431
42
0.41421356237309309
10
-15.050000000000004
20
-66.352676163769416
10
-15.050000000000004
20
-70.373375982349771
42
0.41421356237309637
10
-14.050000000000008
20
-71.373375982349771
10
-11.550000000000008
20
-71.373375982349771
42
-0.99999999999999989
10
-11.550000000000015
20
-72.373375982349756
10
-14.050000000000001
20
-72.373375982349756
42
0.41421356237309048
10
-15.050000000000008
20
-73.373375982349756
10
-15.050000000000004
20
-77.673375982346343
42
0.41421356237309509
10
-14.050000000000002
20
-78.673375982346343
10
-9.7500000000017408
20
-78.673375982346343
42
0.41421356237309537
10
-8.7500000000017426
20
-77.673375982346357
10
-8.7500000000017408
20
-74.673375982347622
42
-0.99999999999999989
10
-7.7500000000017399
20
-74.673375982347608
10
-7.7500000000017399
20
-77.673375982346343
42
0.41421356237309537
10
-6.7500000000017399
20
-78.673375982346329
10
-1.6000000000011716
20
-78.673375982346343
42
0.4142135623730957
10
-0.60000000000117293
20
-77.673375982346357
10
-0.60000000000117282
20
-74.673375982347608
42
-0.99999999999999989
10
0.39999999999882135
20
-74.673375982347608
10
0.39999999999882657
20
-77.673375982346343
42
0.41421356237309542
10
1.3999999999988268
20
-78.673375982346329
10
6.5499999999994092
20
-78.673375982346343
42
0.41421356237309537
10
7.5499999999994074
20
-77.673375982346357
10
7.549999999999403
20
-74.673375982347608
42
-0.99999999999999989
10
8.5499999999994163
20
-74.673375982347608
10
8.549999999999411
20
-77.673375982346343
42
0.41421356237309537
10
9.5499999999994127
20
-78.673375982346329
10
14.699999999999978
20
-78.673375982346343
42
0.41421356237309692
10
15.699999999999982
20
-77.673375982346343
10
15.699999999999976
20
-52.873375982348918
42
0.41421356237309692
10
14.699999999999973
20
-51.873375982348918
10
10.970106707922827
20
-51.873375982348918
42
0.19891236737965692
10
10.262999926736278
20
-52.166269201162372
10
9.0642135623743449
20
-53.365055565524308
42
-0.19891236737966078
10
8.3571067811877935
20
-53.657948784337762
10
0.043709084401757359
20
-53.657948784336462
42
0.37226862051290954
10
-0.94575331732441303
20
-54.513158744726425
10
-1.3794240327005036
20
-57.476766384796505
42
-0.37226862051291126
10
-2.3688864344266798
20
-58.331976345186476
10
-14.050000000000033
20
-58.331976345186447
42
0.4142135623730957
10
-15.050000000000006
20
-59.331976345186419
0
CIRCLE
5
101
100
AcDbEntity
8
0
100
AcDbCircle
10
-11.900000000000004
20
-75.523375982347602
30
0
40
1.6500000000000004
210
0
220
-0
230
1
0
CIRCLE
5
102
100
AcDbEntity
8
0
100
AcDbCircle
10
12.549999999999972
20
-55.023375982349343
30
0
40
1.6500000000000048
210
0
220
-0
230
1
0
ENDSEC
0
SECTION
2
OBJECTS
0
DICTIONARY
5
C
100
AcDbDictionary
3
ACAD_GROUP
350
D
3
ACAD_MLINESTYLE
350
17
0
DICTIONARY
5
D
100
AcDbDictionary
0
DICTIONARY
5
1A
330
C
100
AcDbDictionary
0
DICTIONARY
5
17
100
AcDbDictionary
0
ENDSEC
0
EOF
