0
SECTION
2
HEADER
9
$INSUNITS
70
1
9
$ACADVER
1
AC1014
9
$HANDSEED
5
FFFF
0
ENDSEC
0
SECTION
2
TABLES
0
TABLE
2
VPORT
5
8
100
AcDbSymbolTable
0
ENDTAB
0
TABLE
2
LTYPE
5
5
100
AcDbSymbolTable
0
LTYPE
5
14
100
AcDbSymbolTableRecord
100
AcDbLinetypeTableRecord
2
BYBLOCK
70
0
0
LTYPE
5
15
100
AcDbSymbolTableRecord
100
AcDbLinetypeTableRecord
2
BYLAYER
70
0
0
LTYPE
5
16
100
AcDbSymbolTableRecord
100
AcDbLinetypeTableRecord
2
DASHED
70
0
3
Dashed __ __ __ __ __ __ __ __ __ __ __ __ __ _
72
65
73
2
40
0.75
49
0.5
74
0
49
-0.25
74
0
0
ENDTAB
0
TABLE
2
LAYER
5
2
100
AcDbSymbolTable
70
2
0
LAYER
5
50
100
AcDbSymbolTableRecord
100
AcDbLayerTableRecord
2
0
70
0
62
7
6
CONTINUOUS
0
ENDTAB
0
TABLE
2
STYLE
5
3
100
AcDbSymbolTable
70
1
0
STYLE
5
11
100
AcDbSymbolTableRecord
100
AcDbTextStyleTableRecord
2
STANDARD
70
0
0
ENDTAB
0
TABLE
2
VIEW
5
6
100
AcDbSymbolTable
70
0
0
ENDTAB
0
TABLE
2
UCS
5
7
100
AcDbSymbolTable
70
0
0
ENDTAB
0
TABLE
2
APPID
5
9
100
AcDbSymbolTable
70
2
0
APPID
5
12
100
AcDbSymbolTableRecord
100
AcDbRegAppTableRecord
2
ACAD
70
0
0
ENDTAB
0
TABLE
2
DIMSTYLE
5
A
100
AcDbSymbolTable
70
1
0
ENDTAB
0
TABLE
2
BLOCK_RECORD
5
1
100
AcDbSymbolTable
70
1
0
BLOCK_RECORD
5
1F
100
AcDbSymbolTableRecord
100
AcDbBlockTableRecord
2
*MODEL_SPACE
0
BLOCK_RECORD
5
1B
100
AcDbSymbolTableRecord
100
AcDbBlockTableRecord
2
*PAPER_SPACE
0
ENDTAB
0
ENDSEC
0
SECTION
2
BLOCKS
0
BLOCK
5
20
100
AcDbEntity
100
AcDbBlockBegin
2
*MODEL_SPACE
0
ENDBLK
5
21
100
AcDbEntity
100
AcDbBlockEnd
0
BLOCK
5
1C
100
AcDbEntity
100
AcDbBlockBegin
2
*PAPER_SPACE
0
ENDBLK
5
1D
100
AcDbEntity
100
AcDbBlockEnd
0
ENDSEC
0
SECTION
2
ENTITIES
0
LWPOLYLINE
5
100
100
AcDbEntity
8
0
100
AcDbPolyline
90
32
70
1
43
0.0
10
-0.59251968503937036
20
-2.4941998489672641
42
0.41421356237309509
10
-0.55314960629921284
20
-2.5335699277074215
10
-0.45472440944881931
20
-2.5335699277074215
42
-0.99999999999999989
10
-0.45472440944881914
20
-2.572940006447578
10
-0.55314960629921295
20
-2.5729400064475789
42
0.41421356237309437
10
-0.59251968503937014
20
-2.6123100851877363
10
-0.59251968503937036
20
-2.7706053536357818
42
0.41421356237309509
10
-0.55314960629921284
20
-2.8099754323759392
10
-0.45472440944881876
20
-2.8099754323759392
42
-0.99999999999999989
10
-0.45472440944881914
20
-2.8493455111160966
10
-0.55314960629921284
20
-2.8493455111160966
42
0.41421356237309509
10
-0.59251968503937014
20
-2.888715589856254
10
-0.59251968503937036
20
-3.0580069284388496
42
0.41421356237309509
10
-0.55314960629921306
20
-3.097377007179007
10
0.066929133858266723
20
-3.097377007179007
42
0.41421356237309537
10
0.10629921259842411
20
-3.0580069284388496
10
0.10629921259842438
20
-2.8611565347381114
42
-0.41421356237309509
10
0.14566929133858172
20
-2.821786455997954
10
0.57874015748031415
20
-2.821786455997954
42
0.41421356237309509
10
0.61811023622047145
20
-2.782416377257797
10
0.61811023622047145
20
-2.0816289756829947
42
0.41421356237309692
10
0.57874015748031382
20
-2.0422588969428372
10
0.4318939648788514
20
-2.0422588969428372
42
0.19891236737965692
10
0.4040551152258377
20
-2.0537901260299809
10
0.35685880166828116
20
-2.1009864395875373
42
-0.19891236737965973
10
0.3290199520152674
20
-2.1125176686746814
10
0.0017208300945573763
20
-2.1125176686746809
42
0.37226862051290954
10
-0.037234382571827283
20
-2.1461873521546013
10
-0.05430803278348436
20
-2.2628648182990925
42
-0.37226862051291154
10
-0.093263245449869303
20
-2.2965345017790124
10
-0.55314960629921217
20
-2.2965345017790115
42
0.41421356237309437
10
-0.59251968503937003
20
-2.3359045805191694
0
CIRCLE
5
101
100
AcDbEntity
8
0
100
AcDbCircle
10
0.49409448818897522
20
-2.1662746449743833
30
0
40
0.064960629921260032
210
0
220
-0
230
1
0
CIRCLE
5
102
100
AcDbEntity
8
0
100
AcDbCircle
10
-0.46850393700787413
20
-2.9733612591475431
30
0
40
0.064960629921259852
210
0
220
-6.3108872417680944e-30
230
1
0
ENDSEC
0
SECTION
2
OBJECTS
0
DICTIONARY
5
C
100
AcDbDictionary
3
ACAD_GROUP
350
D
3
ACAD_MLINESTYLE
350
17
0
DICTIONARY
5
D
100
AcDbDictionary
0
DICTIONARY
5
1A
330
C
100
AcDbDictionary
0
DICTIONARY
5
17
100
AcDbDictionary
0
ENDSEC
0
EOF
