0
SECTION
2
HEADER
9
$INSUNITS
70
4
9
$ACADVER
1
AC1014
9
$HANDSEED
5
FFFF
0
ENDSEC
0
SECTION
2
TABLES
0
TABLE
2
VPORT
5
8
100
AcDbSymbolTable
0
ENDTAB
0
TABLE
2
LTYPE
5
5
100
AcDbSymbolTable
0
LTYPE
5
14
100
AcDbSymbolTableRecord
100
AcDbLinetypeTableRecord
2
BYBLOCK
70
0
0
LTYPE
5
15
100
AcDbSymbolTableRecord
100
AcDbLinetypeTableRecord
2
BYLAYER
70
0
0
LTYPE
5
16
100
AcDbSymbolTableRecord
100
AcDbLinetypeTableRecord
2
DASHED
70
0
3
Dashed __ __ __ __ __ __ __ __ __ __ __ __ __ _
72
65
73
2
40
0.75
49
0.5
74
0
49
-0.25
74
0
0
ENDTAB
0
TABLE
2
LAYER
5
2
100
AcDbSymbolTable
70
2
0
LAYER
5
50
100
AcDbSymbolTableRecord
100
AcDbLayerTableRecord
2
0
70
0
62
7
6
CONTINUOUS
0
ENDTAB
0
TABLE
2
STYLE
5
3
100
AcDbSymbolTable
70
1
0
STYLE
5
11
100
AcDbSymbolTableRecord
100
AcDbTextStyleTableRecord
2
STANDARD
70
0
0
ENDTAB
0
TABLE
2
VIEW
5
6
100
AcDbSymbolTable
70
0
0
ENDTAB
0
TABLE
2
UCS
5
7
100
AcDbSymbolTable
70
0
0
ENDTAB
0
TABLE
2
APPID
5
9
100
AcDbSymbolTable
70
2
0
APPID
5
12
100
AcDbSymbolTableRecord
100
AcDbRegAppTableRecord
2
ACAD
70
0
0
ENDTAB
0
TABLE
2
DIMSTYLE
5
A
100
AcDbSymbolTable
70
1
0
ENDTAB
0
TABLE
2
BLOCK_RECORD
5
1
100
AcDbSymbolTable
70
1
0
BLOCK_RECORD
5
1F
100
AcDbSymbolTableRecord
100
AcDbBlockTableRecord
2
*MODEL_SPACE
0
BLOCK_RECORD
5
1B
100
AcDbSymbolTableRecord
100
AcDbBlockTableRecord
2
*PAPER_SPACE
0
ENDTAB
0
ENDSEC
0
SECTION
2
BLOCKS
0
BLOCK
5
20
100
AcDbEntity
100
AcDbBlockBegin
2
*MODEL_SPACE
0
ENDBLK
5
21
100
AcDbEntity
100
AcDbBlockEnd
0
BLOCK
5
1C
100
AcDbEntity
100
AcDbBlockBegin
2
*PAPER_SPACE
0
ENDBLK
5
1D
100
AcDbEntity
100
AcDbBlockEnd
0
ENDSEC
0
SECTION
2
ENTITIES
0
LWPOLYLINE
5
100
100
AcDbEntity
8
0
100
AcDbPolyline
90
32
70
1
43
0.0
10
-15.050000000000008
20
-63.352676163768521
42
0.41421356237309509
10
-14.050000000000008
20
-64.352676163768507
10
-11.550000000000011
20
-64.352676163768507
42
-0.99999999999999989
10
-11.550000000000008
20
-65.352676163768493
10
-14.05000000000001
20
-65.352676163768507
42
0.41421356237309437
10
-15.050000000000004
20
-66.352676163768507
10
-15.050000000000008
20
-70.373375982348861
42
0.41421356237309509
10
-14.050000000000008
20
-71.373375982348861
10
-11.549999999999997
20
-71.373375982348861
42
-0.99999999999999989
10
-11.550000000000008
20
-72.373375982348861
10
-14.050000000000008
20
-72.373375982348861
42
0.41421356237309509
10
-15.050000000000004
20
-73.373375982348847
10
-15.050000000000008
20
-77.673375982346784
42
0.41421356237309509
10
-14.050000000000013
20
-78.673375982346784
10
1.6999999999999749
20
-78.673375982346784
42
0.41421356237309537
10
2.6999999999999726
20
-77.673375982346784
10
2.6999999999999802
20
-72.873375982348037
42
-0.41421356237309509
10
3.6999999999999766
20
-71.873375982348037
10
15.199999999999978
20
-71.873375982348037
42
0.41421356237309509
10
16.199999999999974
20
-70.873375982348051
10
16.199999999999971
20
-52.873375982348065
42
0.41421356237309637
10
15.199999999999978
20
-51.873375982348065
10
10.970106707922827
20
-51.873375982348065
42
0.19891236737965692
10
10.262999926736278
20
-52.166269201161519
10
9.0642135623743432
20
-53.365055565523456
42
-0.19891236737965973
10
8.3571067811877935
20
-53.657948784336909
10
0.043709084401757359
20
-53.657948784336902
42
0.37226862051290954
10
-0.94575331732441303
20
-54.513158744726873
10
-1.3794240327005027
20
-57.476766384796953
42
-0.37226862051291154
10
-2.3688864344266807
20
-58.331976345186916
10
-14.04999999999999
20
-58.331976345186895
42
0.41421356237309437
10
-15.050000000000001
20
-59.331976345186909
0
CIRCLE
5
101
100
AcDbEntity
8
0
100
AcDbCircle
10
12.549999999999972
20
-55.023375982349336
30
0
40
1.6500000000000048
210
0
220
-0
230
1
0
CIRCLE
5
102
100
AcDbEntity
8
0
100
AcDbCircle
10
-11.900000000000004
20
-75.523375982347602
30
0
40
1.6500000000000004
210
0
220
-6.3108872417680944e-30
230
1
0
ENDSEC
0
SECTION
2
OBJECTS
0
DICTIONARY
5
C
100
AcDbDictionary
3
ACAD_GROUP
350
D
3
ACAD_MLINESTYLE
350
17
0
DICTIONARY
5
D
100
AcDbDictionary
0
DICTIONARY
5
1A
330
C
100
AcDbDictionary
0
DICTIONARY
5
17
100
AcDbDictionary
0
ENDSEC
0
EOF
